<?xml version="1.0" encoding="utf-8"?>
<!-- Generator: Adobe Illustrator 27.5.0, SVG Export Plug-In . SVG Version: 6.00 Build 0)  -->
<svg version="1.1" id="Capa_2" xmlns="http://www.w3.org/2000/svg" xmlns:xlink="http://www.w3.org/1999/xlink" x="0px" y="0px"
	 viewBox="0 0 2122 2122" style="enable-background:new 0 0 2122 2122;" xml:space="preserve">
<path style="fill:#CE1417;" d="M1788.458,1081.071c-6.624-123.328-36.68-249.208-111.269-347.646
	c-74.589-98.438-199.92-164.198-321.752-143.935c-53.289,8.863-103.105,33.079-156.415,41.81c-9.591,1.571-19.167,2.63-28.731,3.244
	c8.393-33.556,18.941-66.479,32.613-98.299c34.659-80.669,91.306-154.473,169.006-195.356c13.851-7.288,28.679-13.794,39.126-25.448
	c28.817-32.145-11.011-75.294-37.82-93.652c-6.451-4.417-13.721-8.379-21.538-8.285c-10.688,0.128-19.682,7.663-27.503,14.95
	c-114.292,106.495-192.451,250.53-221.939,403.803c-10.428-1.24-20.85-2.826-31.27-4.675
	c-82.662-14.667-165.19-45.782-249.469-50.463c-118.191-6.563-236.769,41.329-323.219,122.19
	c-242.562,226.879-194.243,616.092-22.556,870.208c110.055,162.894,282.744,284.173,475.246,324.046
	c192.501,39.873,402.572-4.495,557.479-125.533C1711.035,1609.733,1802.247,1337.799,1788.458,1081.071z"/>
<path style="fill:#B61919;" d="M1788.458,1081.071c-4.13-76.888-17.381-154.761-44.843-226.362
	c28.636,101.323,30.283,210.283,16.034,314.715c-21.643,158.614-83.568,313.564-186.79,436.871
	c-50.514,60.341-108.563,112.985-178.454,149.931c-65.203,34.469-137.807,53.634-211.151,59.555
	c-75.503,6.096-150.732-1.479-224.983-15.317c-60.768-11.325-122.159-27.232-175.61-59.301
	c-51.203-30.72-88.095-77.451-104.204-135.133c-17.484-62.609-13.562-129.621-12.348-193.87
	c2.21-117.031-1.72-285.482-139.56-325.324c-3.847-1.112-7.719-2.085-11.611-2.951c-1.47,24.423-0.891,48.993,1.781,73.501
	c9.523,87.398,45.303,170.972,103.471,241.681c2.626,3.193,2.168,7.91-1.023,10.533c-1.393,1.147-3.077,1.705-4.75,1.705
	c-2.161,0-4.305-0.931-5.783-2.729c-60.024-72.967-96.954-159.266-106.794-249.568c-2.833-25.993-3.388-52.052-1.72-77.942
	c-15.703-2.547-31.608-3.945-47.384-6.029c-7.216-0.953-14.85-1.947-22.353-3.543c-1.873,70.051,12.266,140.517,42.392,204.271
	c1.764,3.737,0.166,8.198-3.571,9.964c-1.031,0.487-2.119,0.718-3.191,0.718c-2.804,0-5.493-1.583-6.772-4.29
	c-31.675-67.034-46.246-141.249-43.685-214.886c-7.073-2.662-13.65-6.305-19.183-11.488c-20.11-18.839-21.279-51.336-20.924-76.855
	c0.473-33.989,6.26-67.708,16.719-100.045c41.054-126.925,155.886-218.389,276.034-266.624
	c41.324-16.59,83.807-28.154,127.256-35.626c8.559-0.096,17.125,0.001,25.693,0.466c-118.076-6.45-236.506,41.425-322.873,122.208
	c-242.563,226.879-194.242,616.091-22.556,870.208c110.055,162.894,282.745,284.173,475.246,324.046
	c192.502,39.873,402.573-4.494,557.48-125.533C1711.035,1609.732,1802.246,1337.799,1788.458,1081.071z"/>
<path style="fill:#A01916;" d="M762.093,650.066c3.99-1.075,6.355-5.182,5.279-9.172c-1.077-3.993-5.194-6.361-9.172-5.279
	c-131.196,35.342-243.569,130.07-300.591,253.398c-25.91,56.032-39.921,116.945-42.054,178.259
	c-2.561,73.637,12.011,147.852,43.685,214.886c1.279,2.707,3.968,4.29,6.772,4.29c1.072,0,2.161-0.232,3.191-0.718
	c3.737-1.766,5.335-6.227,3.571-9.964c-30.127-63.755-44.266-134.221-42.392-204.271c1.62-60.581,15.215-120.852,40.809-176.201
	C526.378,775.944,635.126,684.271,762.093,650.066z"/>
<path style="fill:#A01916;" d="M562.878,892.336c-3.659-1.924-8.185-0.516-10.107,3.14c-30.744,58.454-48.521,121.504-52.65,185.591
	c-1.669,25.89-1.114,51.948,1.72,77.942c9.839,90.302,46.77,176.601,106.794,249.568c1.479,1.798,3.622,2.729,5.783,2.729
	c1.674,0,3.357-0.558,4.75-1.705c3.191-2.624,3.649-7.34,1.023-10.533c-58.168-70.709-93.949-154.282-103.471-241.681
	c-2.671-24.509-3.251-49.079-1.781-73.501c3.77-62.636,21.024-124.299,51.079-181.441
	C567.942,898.784,566.537,894.261,562.878,892.336z"/>
<path style="fill:#A01916;" d="M1401.444,1613.906c1.496,0,3.008-0.448,4.324-1.381c95.274-67.6,168.394-165.912,205.892-276.82
	c1.326-3.915-0.777-8.163-4.692-9.486c-3.927-1.328-8.163,0.777-9.486,4.692c-36.497,107.942-107.659,203.62-200.377,269.41
	c-3.369,2.39-4.163,7.063-1.771,10.434C1396.794,1612.81,1399.101,1613.906,1401.444,1613.906z"/>
<path style="fill:#A01916;" d="M1204.792,1634.72c0.533,0,1.074-0.059,1.615-0.178c85.649-18.845,164.969-65.406,223.352-131.098
	c2.745-3.092,2.468-7.82-0.621-10.565c-3.094-2.745-7.82-2.47-10.565,0.621c-56.302,63.354-132.792,108.253-215.381,126.426
	c-4.037,0.887-6.589,4.879-5.7,8.916C1198.258,1632.338,1201.354,1634.72,1204.792,1634.72z"/>
<path style="fill:#A01916;" d="M932.621,1702.343c45.495,11.8,92.477,17.656,139.491,17.656c69.836,0,139.736-12.926,204.876-38.48
	c3.847-1.51,5.742-5.854,4.234-9.7c-1.51-3.847-5.854-5.739-9.7-4.234c-106.078,41.615-225.099,48.816-335.145,20.268
	c-3.993-1.043-8.085,1.364-9.123,5.366C926.217,1697.219,928.619,1701.304,932.621,1702.343z"/>
<path style="fill:#A01916;" d="M1645.984,1375.273c-3.929-1.269-8.151,0.877-9.427,4.809
	c-35.145,108.39-105.108,204.947-197.003,271.888c-91.793,66.867-204.765,103.676-318.171,103.676h-0.37
	c-4.131,0-7.481,3.347-7.484,7.479c-0.002,4.258,3.632,7.529,7.854,7.488c116.541,0,232.655-37.832,326.984-106.545
	c94.426-68.787,166.316-168,202.426-279.366C1652.07,1380.769,1649.914,1376.547,1645.984,1375.273z"/>
<path style="fill:#871811;" d="M1089.239,763.641c-35.152-12.021-67.25-33.949-92.345-64.891
	c-1.846-2.275-20.53,19.355-15.417,25.659c60.305,74.357,161.184,96.725,247.623,55.745c7.564-3.586,14.359-26.481,13.025-25.848
	c-31.251,14.815-64.305,21.253-96.593,19.902c5.872-46.94,13.309-93.892,24.758-139.665c8.393-33.556,18.942-66.479,32.613-98.299
	c34.66-80.669,91.306-154.473,169.006-195.356c13.852-7.289,28.68-13.794,39.127-25.448c28.817-32.145-11.012-75.294-37.82-93.652
	c-6.451-4.417-13.72-8.379-21.538-8.285c-10.689,0.128-19.682,7.663-27.503,14.95c-114.291,106.495-192.451,250.53-221.939,403.803
	c-7.997,41.568-12.418,83.815-13.004,126.177C1089.208,760.159,1089.194,761.901,1089.239,763.641z"/>
<path style="fill:#A01916;" d="M668.161,772.538c-2.867,2.977-2.777,7.715,0.2,10.582c1.452,1.398,3.323,2.092,5.192,2.092
	c1.961,0,3.922-0.767,5.391-2.292c45.157-46.889,107.915-74.044,172.18-74.497c4.132-0.029,7.46-3.403,7.43-7.537
	c-0.029-4.131-3.242-7.574-7.537-7.43C782.746,693.939,716.098,722.763,668.161,772.538z"/>
<path style="fill:#E83F2E;" d="M1357.345,780.705c19.049,17.781,34.885,38.549,47.713,61.2
	c25.457,44.952,38.847,95.623,50.372,145.612c13.333,57.829,24.167,116.685,45.42,168.217
	c18.039,43.742,52.937,81.997,104.238,80.505c50.703-1.474,85.616-37.788,93.101-86.78
	c19.338-126.566-36.859-282.235-119.078-378.187c-57.163-66.711-141.282-113.75-229.119-112.159
	c-38.19,0.692-67.319,27.742-47.238,67.009C1314.817,749.709,1338.566,763.175,1357.345,780.705z"/>
</svg>
